<svg width="40" height="51" viewBox="0 0 40 51" fill="none" xmlns="http://www.w3.org/2000/svg">
<path d="M11.9997 6.66683H6.66634C5.25185 6.66683 3.8953 7.22873 2.8951 8.22893C1.89491 9.22912 1.33301 10.5857 1.33301 12.0002V44.0002C1.33301 45.4147 1.89491 46.7712 2.8951 47.7714C3.8953 48.7716 5.25185 49.3335 6.66634 49.3335H33.333C34.7475 49.3335 36.1041 48.7716 37.1042 47.7714C38.1044 46.7712 38.6663 45.4147 38.6663 44.0002V12.0002C38.6663 10.5857 38.1044 9.22912 37.1042 8.22893C36.1041 7.22873 34.7475 6.66683 33.333 6.66683H27.9997M11.9997 6.66683C11.9997 8.08132 12.5616 9.43787 13.5618 10.4381C14.562 11.4383 15.9185 12.0002 17.333 12.0002H22.6663C24.0808 12.0002 25.4374 11.4383 26.4376 10.4381C27.4378 9.43787 27.9997 8.08132 27.9997 6.66683M11.9997 6.66683C11.9997 5.25234 12.5616 3.89579 13.5618 2.89559C14.562 1.8954 15.9185 1.3335 17.333 1.3335H22.6663C24.0808 1.3335 25.4374 1.8954 26.4376 2.89559C27.4378 3.89579 27.9997 5.25234 27.9997 6.66683M11.9997 30.6668L17.333 36.0002L27.9997 25.3335" stroke="#717182" stroke-opacity="0.2" stroke-width="2.66667" stroke-linecap="round" stroke-linejoin="round"/>
</svg>
