<svg width="11" height="15" viewBox="0 0 11 15" fill="none" xmlns="http://www.w3.org/2000/svg">
<path d="M10.0003 6.6665C10.0003 7.90418 9.50866 9.09117 8.63349 9.96634C7.75832 10.8415 6.57134 11.3332 5.33366 11.3332M5.33366 11.3332C4.09598 11.3332 2.909 10.8415 2.03383 9.96634C1.15866 9.09117 0.666992 7.90418 0.666992 6.6665M5.33366 11.3332V13.9998M5.33366 13.9998H2.66699M5.33366 13.9998H8.00033M5.33366 8.6665C4.80323 8.6665 4.29452 8.45579 3.91945 8.08072C3.54437 7.70565 3.33366 7.19694 3.33366 6.6665V2.6665C3.33366 2.13607 3.54437 1.62736 3.91945 1.25229C4.29452 0.877218 4.80323 0.666504 5.33366 0.666504C5.86409 0.666504 6.3728 0.877218 6.74787 1.25229C7.12295 1.62736 7.33366 2.13607 7.33366 2.6665V6.6665C7.33366 7.19694 7.12295 7.70565 6.74787 8.08072C6.3728 8.45579 5.86409 8.6665 5.33366 8.6665Z" stroke="white" stroke-width="1.33333" stroke-linecap="round" stroke-linejoin="round"/>
</svg>
